# xmcd
#
# Track frame offsets: 
#        150
#        9467
#        20106
#        30415
#        42641
#        55336
#        67098
#        76673
#        84479
#        94666
#        107830
#        118115
#        129619
#        140113
#        153040
#        164074
#        178426
#        188565
#        198779
#        210443
#
# Disc length: 2979 seconds
#
# Revision: 0
# Processed by: cddbd v1.5.2PL0 Copyright (c) Steve Scherf et al.
# Submitted via: ExactAudioCopy v0.95b4
#
DISCID=160ba114
DTITLE=Various Artist - Rock 'n' Roll and Petticoats
DYEAR=2009
DGENRE=Blues
TTITLE0=Little  Richard - Long Tall Sally
TTITLE1=Chubby Checker - Let's Twist Again
TTITLE2=The Crystals - Da Doo Run Run
TTITLE3=The Drifters - Under The Boardwalk
TTITLE4=The Shangri-Las - Leader Of The Pack
TTITLE5=The Shirellis - Will You Love Me Tomorrow?
TTITLE6=Tommy Roe - Sheila
TTITLE7=Swingin Blue Jeans - Hippy Hippy Shake
TTITLE8=The Coasters - Charlie Brown
TTITLE9=The Foundations - Build Me Up Buttercup
TTITLE10=Wanda Jackson - Let's Have A Party
TTITLE11=Pat Boone - Speedy Gonzales
TTITLE12=Sam The Sham and The Pharaos - Wolly Bully
TTITLE13=Lloyd Price - Stagger Lee
TTITLE14=Bobby Vee - More Than I Can Say
TTITLE15=The Tremeloes - Silence Is Golden
TTITLE16=The Chiffons - One Fine Day
TTITLE17=Jimmy Clanton - Venus In Blue Jeans
TTITLE18=The Platters - The Great Pretender
TTITLE19=Percy Sledge - When A Man Loves A Woman
EXTD=
EXTT0=
EXTT1=
EXTT2=
EXTT3=
EXTT4=
EXTT5=
EXTT6=
EXTT7=
EXTT8=
EXTT9=
EXTT10=
EXTT11=
EXTT12=
EXTT13=
EXTT14=
EXTT15=
EXTT16=
EXTT17=
EXTT18=
EXTT19=
PLAYORDER=
